<svg width="1134" height="251" viewBox="0 0 1134 251" fill="none" xmlns="http://www.w3.org/2000/svg">
<path fill-rule="evenodd" clip-rule="evenodd" d="M218.5 22.4805C160.226 22.4805 123.824 41.1424 109.25 78.4805C131.1 59.8185 156.599 52.8185 185.725 57.4805C202.353 60.1424 214.239 67.8748 227.371 76.4241C248.806 90.3537 273.606 106.48 327.75 106.48C386.024 106.48 422.426 87.8185 437 50.4805C415.15 69.1424 389.673 76.1424 360.525 71.4805C343.897 68.8185 332.011 61.0861 318.857 52.5368C297.444 38.5931 272.666 22.4805 218.5 22.4805ZM109.25 106.48C50.976 106.48 14.5739 125.142 0 162.48C21.85 143.804 47.349 136.818 76.475 141.48C93.1029 144.142 104.989 151.875 118.143 160.424C139.556 174.354 164.356 190.48 218.522 190.48C276.796 190.48 313.198 171.818 327.772 134.48C305.922 153.142 280.423 160.142 251.297 155.48C234.669 152.818 222.783 145.086 209.651 136.537C188.499 123.682 163.615 107.258 109.25 106.48Z" fill="#047857"/>
<path d="M454.28 194.48C451.853 194.48 450.64 193.614 450.64 191.88C450.64 189.974 452.373 188.76 455.84 188.24L461.04 187.46C464.853 186.94 467.453 186.074 468.84 184.86C470.4 183.474 471.527 180.96 472.22 177.32L507.58 24.4405C508.447 20.8005 508.447 18.3738 507.58 17.1605C506.713 15.9471 504.547 14.9938 501.08 14.3005L495.88 13.2605C493.627 12.7405 492.5 11.7871 492.5 10.4005C492.5 8.32046 494.06 7.28046 497.18 7.28046H580.9C585.233 7.28046 586.967 9.27379 586.1 13.2605L578.3 56.4205C577.78 59.3671 576.393 60.8405 574.14 60.8405C571.713 60.8405 570.673 59.7138 571.02 57.4605L571.54 48.3605C572.407 36.4005 570.5 27.6471 565.82 22.1005C561.14 16.5538 555.16 13.7805 547.88 13.7805C540.427 13.7805 534.967 14.9938 531.5 17.4205C528.033 19.8471 525.693 23.5738 524.48 28.6005L510.44 89.9605C509.92 92.3871 510.873 93.6005 513.3 93.6005H522.92C530.373 93.6005 535.92 89.5271 539.56 81.3805L545.54 68.6405C546.06 67.6005 546.58 66.8205 547.1 66.3005C547.62 65.6071 548.4 65.2605 549.44 65.2605C550.307 65.2605 551.087 65.6938 551.78 66.5605C552.473 67.2538 552.647 68.2938 552.3 69.6805L538.78 127.66C537.913 130.607 536.527 132.08 534.62 132.08C532.54 132.08 531.5 130.954 531.5 128.7V116.22C531.5 110.154 530.72 106.167 529.16 104.26C527.6 102.354 524.827 101.4 520.84 101.4H511.48C508.88 101.4 507.32 102.614 506.8 105.04L490.16 176.02C489.293 179.66 489.293 182.26 490.16 183.82C491.027 185.207 493.193 186.16 496.66 186.68L510.44 188.5C512.52 188.674 513.56 189.627 513.56 191.36C513.56 193.44 512.087 194.48 509.14 194.48H454.28ZM586.135 197.08C580.415 197.08 576.341 195 573.915 190.84C571.488 186.507 571.401 179.487 573.655 169.78L606.675 28.0805C607.541 24.9605 607.541 22.7938 606.675 21.5805C605.981 20.3671 604.421 19.6738 601.995 19.5005L594.195 18.7205C591.595 18.5471 590.468 17.4205 590.815 15.3405C591.161 13.7805 592.375 12.8271 594.455 12.4805C600.695 11.4405 606.241 10.2271 611.095 8.84046C615.948 7.28046 619.848 5.28712 622.795 2.86046C624.181 1.82046 625.481 1.30046 626.695 1.30046C628.775 1.30046 629.555 2.60046 629.035 5.20046L590.555 170.04C589.688 173.854 589.515 176.887 590.035 179.14C590.728 181.22 592.375 182.26 594.975 182.26C598.095 182.26 601.475 180.007 605.115 175.5C608.928 170.82 613.175 162.067 617.855 149.24C618.548 146.987 619.761 145.86 621.495 145.86C624.095 145.86 624.788 147.42 623.575 150.54C619.935 162.327 615.861 171.687 611.355 178.62C607.021 185.38 602.688 190.147 598.355 192.92C594.021 195.694 589.948 197.08 586.135 197.08ZM669.395 196.82C658.649 196.82 650.155 192.4 643.915 183.56C637.675 174.547 634.555 162.414 634.555 147.16C634.555 135.894 636.375 125.06 640.015 114.66C643.655 104.26 648.422 94.9871 654.315 86.8405C660.382 78.6938 667.055 72.2805 674.335 67.6005C681.789 62.7471 689.242 60.3205 696.695 60.3205C707.442 60.3205 715.935 64.7405 722.175 73.5805C728.415 82.4205 731.535 94.5538 731.535 109.98C731.535 121.247 729.715 132.08 726.075 142.48C722.435 152.88 717.582 162.154 711.515 170.3C705.622 178.447 698.949 184.947 691.495 189.8C684.215 194.48 676.849 196.82 669.395 196.82ZM668.875 190.58C674.422 190.58 679.795 187.894 684.995 182.52C690.369 177.147 695.222 170.04 699.555 161.2C703.889 152.36 707.355 142.567 709.955 131.82C712.555 120.9 713.855 109.98 713.855 99.0605C713.855 77.3938 708.222 66.5605 696.955 66.5605C691.582 66.5605 686.209 69.2471 680.835 74.6205C675.462 79.8205 670.609 86.8405 666.275 95.6805C662.115 104.52 658.735 114.4 656.135 125.32C653.535 136.067 652.235 146.9 652.235 157.82C652.235 179.66 657.782 190.58 668.875 190.58ZM772.632 196.82C765.525 196.82 760.065 194.047 756.252 188.5C752.438 182.954 751.745 175.414 754.172 165.88L774.972 87.3605C777.225 79.2138 775.838 75.1405 770.812 75.1405C767.172 75.1405 763.532 77.7405 759.892 82.9405C756.425 88.1405 752.612 96.6338 748.452 108.42C747.758 110.5 746.545 111.54 744.812 111.54C743.945 111.54 743.252 111.194 742.732 110.5C742.212 109.634 742.125 108.594 742.472 107.38C752.525 76.0071 765.092 60.3205 780.172 60.3205C786.065 60.3205 790.052 62.7471 792.132 67.6005C794.212 72.4538 794.125 79.1271 791.872 87.6205L770.032 170.56C768.472 176.454 768.385 180.787 769.772 183.56C771.158 186.334 773.238 187.72 776.012 187.72C784.505 187.72 793.952 177.32 804.352 156.52C814.925 135.547 824.198 104.954 832.172 64.7405C832.692 62.8338 833.905 61.8805 835.812 61.8805H845.952C848.378 61.8805 849.332 63.0071 848.812 65.2605L828.012 170.56C826.798 176.28 826.885 180.614 828.272 183.56C829.832 186.334 832.258 187.72 835.552 187.72C840.578 187.72 845.692 185.294 850.892 180.44C856.092 175.587 860.772 169.26 864.932 161.46C869.265 153.66 872.732 145.08 875.332 135.72C877.932 126.36 879.232 117.174 879.232 108.16C879.232 100.88 878.625 95.1605 877.412 91.0005C876.372 86.6671 875.245 83.0271 874.032 80.0805C872.818 77.1338 872.212 73.9271 872.212 70.4605C872.212 63.7005 875.158 60.3205 881.052 60.3205C885.212 60.3205 887.898 62.6605 889.112 67.3405C890.325 71.8471 890.932 78.6938 890.932 87.8805C890.932 101.054 889.285 114.14 885.992 127.14C882.872 139.967 878.538 151.667 872.992 162.24C867.618 172.64 861.378 181.047 854.272 187.46C847.338 193.7 839.972 196.82 832.172 196.82C824.718 196.82 818.998 193.96 815.012 188.24C811.025 182.347 810.158 173.854 812.412 162.76C812.758 161.547 812.498 160.854 811.632 160.68C810.938 160.507 810.332 160.94 809.812 161.98C804.958 171.687 799.498 179.92 793.432 186.68C787.365 193.44 780.432 196.82 772.632 196.82ZM889.729 194.48C887.303 194.48 886.089 193.614 886.089 191.88C886.089 189.974 887.823 188.76 891.289 188.24L896.489 187.46C900.303 186.94 902.903 186.074 904.289 184.86C905.849 183.474 906.976 180.96 907.669 177.32L943.029 24.4405C943.896 20.8005 943.896 18.3738 943.029 17.1605C942.163 15.9471 939.996 14.9938 936.529 14.3005L931.329 13.2605C929.076 12.7405 927.949 11.7871 927.949 10.4005C927.949 8.32046 929.509 7.28046 932.629 7.28046H978.909C981.336 7.28046 982.549 8.14713 982.549 9.88046C982.549 11.7871 980.816 13.0005 977.349 13.5205L972.149 14.3005C968.336 14.8205 965.736 15.7738 964.349 17.1605C962.963 18.3738 961.836 20.8005 960.969 24.4405L925.609 177.32C924.916 180.96 924.916 183.387 925.609 184.6C926.476 185.814 928.643 186.767 932.109 187.46L937.309 188.5C939.563 189.02 940.689 189.974 940.689 191.36C940.689 193.44 939.129 194.48 936.009 194.48H889.729ZM968.769 194.48C966.516 194.48 965.649 193.354 966.169 191.1L992.429 78.7805C993.989 72.3671 991.909 69.1605 986.189 69.1605H980.729C977.956 69.1605 976.569 67.9471 976.569 65.5205C976.569 63.0938 978.129 61.8805 981.249 61.8805C986.623 61.8805 990.609 61.1871 993.209 59.8005C995.983 58.4138 997.803 55.6405 998.669 51.4805C1000.92 41.6005 1004.22 32.8471 1008.55 25.2205C1013.06 17.4205 1018.43 11.2671 1024.67 6.76045C1030.91 2.25379 1037.76 0.000462055 1045.21 0.000462055C1051.28 0.000462055 1056.13 1.4738 1059.77 4.42047C1063.58 7.1938 1065.49 11.0938 1065.49 16.1205C1065.49 19.9338 1064.45 23.0538 1062.37 25.4805C1060.46 27.7338 1058.04 28.8605 1055.09 28.8605C1051.45 28.8605 1049.02 27.8205 1047.81 25.7405C1046.77 23.6605 1046.08 21.2338 1045.73 18.4605C1045.56 15.6871 1045.04 13.2605 1044.17 11.1805C1043.3 9.10046 1041.31 8.06047 1038.19 8.06047C1034.2 8.06047 1030.65 10.0538 1027.53 14.0405C1024.58 17.8538 1021.9 25.1338 1019.47 35.8805L1014.27 58.5005C1013.75 60.7538 1014.7 61.8805 1017.13 61.8805H1037.93C1041.22 61.8805 1042.52 63.0938 1041.83 65.5205C1041.31 67.9471 1039.75 69.1605 1037.15 69.1605H1014.53C1012.8 69.1605 1011.67 70.0271 1011.15 71.7605L983.329 191.62C982.809 193.527 981.596 194.48 979.689 194.48H968.769ZM1019.95 250.38C1013.37 250.38 1008.25 248.647 1004.61 245.18C1000.97 241.887 999.153 237.814 999.153 232.96C999.153 229.32 1000.11 226.547 1002.01 224.64C1003.92 222.907 1006 222.04 1008.25 222.04C1011.55 222.04 1013.89 222.907 1015.27 224.64C1016.66 226.374 1017.7 228.367 1018.39 230.62C1019.09 233.047 1020.21 235.127 1021.77 236.86C1023.16 238.594 1025.5 239.46 1028.79 239.46C1035.21 239.46 1041.53 236.86 1047.77 231.66C1054.01 226.634 1059.13 219.614 1063.11 210.6C1067.1 201.76 1068.83 191.794 1068.31 180.7L1064.41 87.3605C1064.24 82.8538 1063.46 79.7338 1062.07 78.0005C1060.69 76.0938 1058.95 75.1405 1056.87 75.1405C1053.06 75.1405 1049.42 77.4805 1045.95 82.1605C1042.49 86.6671 1039.63 95.3338 1037.37 108.16C1036.85 110.414 1035.73 111.54 1033.99 111.54C1031.57 111.54 1030.61 109.98 1031.13 106.86C1033.21 94.9005 1036.07 85.5405 1039.71 78.7805C1043.53 72.0205 1047.51 67.2538 1051.67 64.4805C1056.01 61.7071 1059.99 60.3205 1063.63 60.3205C1069.01 60.3205 1073.25 62.2271 1076.37 66.0405C1079.49 69.6805 1081.23 76.0071 1081.57 85.0205L1085.21 184.86C1085.21 186.074 1085.56 186.854 1086.25 187.2C1087.12 187.374 1087.9 186.94 1088.59 185.9C1094.66 177.407 1100.12 168.654 1104.97 159.64C1110 150.454 1113.99 141.44 1116.93 132.6C1119.88 123.76 1121.35 115.614 1121.35 108.16C1121.35 100.88 1120.57 95.1605 1119.01 91.0005C1117.45 86.6671 1115.81 83.0271 1114.07 80.0805C1112.51 77.1338 1111.73 73.9271 1111.73 70.4605C1111.73 63.7005 1114.68 60.3205 1120.57 60.3205C1128.89 60.3205 1133.05 69.5071 1133.05 87.8805C1133.05 97.9338 1131.32 108.94 1127.85 120.9C1124.39 132.687 1119.62 144.734 1113.55 157.04C1107.66 169.174 1100.81 180.787 1093.01 191.88C1085.39 202.974 1077.33 212.94 1068.83 221.78C1060.51 230.62 1052.11 237.554 1043.61 242.58C1035.29 247.78 1027.41 250.38 1019.95 250.38Z" fill="#047857"/>
</svg>
