<svg fill="none" height="100%" width="100%" viewBox="0 0 1080 1080" xmlns:xlink="http://www.w3.org/1999/xlink" xmlns="http://www.w3.org/2000/svg"><g transform="matrix(2.05,0,0,2.05,-749.45,27.501)" id="i0"><g id="i1" transform="matrix(1,0,0,1,629.235,340.484)"><path fill="#000000" d="M31.01,-23.878C30.992,-24.238,30.778,-24.464,30.515,-24.566C31.933,-28.109,30.635,-32.377,26.34,-34.816C21.74,-37.429,15.521,-37.084,10.434,-37.164C6.109,-37.231,1.781,-37.114,-2.536,-36.834C-6.634,-36.567,-10.659,-35.988,-14.772,-35.984C-17.329,-35.982,-19.922,-35.757,-22.415,-35.172C-27.392,-34.005,-31.807,-30.985,-31.891,-25.422C-31.917,-23.735,-31.545,-22.385,-30.886,-21.295C-30.917,-21.235,-30.953,-21.183,-30.969,-21.106C-31.933,-16.573,-31.379,-12.079,-30.951,-7.511C-30.951,-7.511,-29.587,7.064,-29.587,7.065C-29.123,12.021,-28.824,16.994,-28.246,21.94C-27.771,26.009,-28.798,32.834,-24.354,35.087C-22.558,35.998,-20.406,35.874,-18.453,36.061C-16.269,36.271,-14.091,36.53,-11.902,36.694C-6.868,37.071,-1.674,37.43,3.374,37.192C8.285,36.962,13.182,36.42,18.025,35.569C20.456,35.144,22.874,34.64,25.274,34.06C28.73,33.225,30.195,31.991,30.093,28.25C29.927,22.173,30.684,16,30.94,9.91C31.412,-1.345,31.534,-12.622,31.01,-23.878Z" /></g><g id="i2" transform="matrix(1,0,0,1,628.987,347.043)"><path fill="#ffffff" d="M27.273,24.229C25.647,25.302,23.991,26.527,21.581,26.937C19.626,27.269,17.661,27.539,15.701,27.842C11.273,28.529,6.805,28.956,2.328,29.119C-2.334,29.289,-7.003,29.134,-11.648,28.719C-14.024,28.507,-16.394,28.227,-18.755,27.889C-20.946,27.577,-23.952,27.46,-25.154,25.185C-26.753,22.156,-26.183,17.77,-26.544,14.462C-27.051,9.82,-27.332,5.156,-27.768,0.506C-27.768,0.505,-28.989,-12.536,-28.989,-12.536C-29.418,-17.125,-30.124,-21.755,-29.361,-26.33C-25.123,-22.617,-16.022,-23.622,-11.073,-23.555C-4.583,-23.468,1.908,-23.615,8.386,-23.99C13.87,-24.308,20.369,-24.069,25.553,-26.167C27.37,-26.903,28.763,-28,29.729,-29.289C29.09,-28.436,29.921,-24.15,29.953,-23C30.016,-20.67,30.059,-18.34,30.081,-16.01C30.124,-11.353,30.082,-6.695,29.956,-2.039C29.775,4.613,30.097,22.364,27.273,24.229Z" /></g><g id="i3" transform="matrix(1,0,0,1,628.285,348.522)"><path fill="#d7dfe0" d="M29.422,19.494C14.493,22.822,-3.012,25.126,-13.392,11.235C-21.225,0.752,-21.478,-12.49,-20.512,-25.114C-23.673,-25.384,-26.69,-26.085,-28.658,-27.809C-29.422,-23.235,-28.716,-18.605,-28.286,-14.015C-28.286,-14.015,-27.065,-0.974,-27.065,-0.973C-26.63,3.677,-26.35,8.341,-25.843,12.983C-25.481,16.291,-26.052,20.677,-24.452,23.706C-23.25,25.981,-20.244,26.098,-18.054,26.41C-15.692,26.748,-13.321,27.028,-10.945,27.24C-6.301,27.655,-1.632,27.809,3.029,27.64C7.508,27.476,11.977,27.05,16.404,26.363C18.364,26.059,20.327,25.79,22.282,25.458C24.692,25.048,26.349,23.823,27.974,22.75C28.596,22.339,29.067,21.157,29.422,19.494Z" /></g><g id="i4" transform="matrix(1,0,0,1,630.932,313.069)"><path fill="#0fccce" d="M26.148,4.382C22.223,8.328,14.692,7.857,9.55,8.214C-1.064,8.951,-11.729,9.08,-22.358,8.563C-24.994,8.434,-28.409,8.534,-30.42,6.481C-32.628,4.227,-32.365,0.422,-30.727,-2.014C-28.456,-5.39,-24.7,-6.518,-20.829,-6.811C-8.223,-7.764,4.65,-9.08,17.272,-7.801C22.689,-7.251,32.628,-2.134,26.148,4.382Z" /></g></g><g visibility="hidden" id="i5"><animate repeatCount="indefinite" begin="0s" calcMode="discrete" dur="4.017s" values="hidden; visible; visible" keyTimes="0; 0.498041; 1" attributeName="visibility" /><g transform="translate(652.428,445.484)"><animateTransform repeatCount="indefinite" type="translate" attributeName="transform" dur="4.017s" begin="0s" calcMode="spline" values="652.428 445.484; 652.428 445.484; 458.428 447.484; 458.428 447.484" keyTimes="0; 0.497925; 0.995851; 1" keySplines="0 0 1 1; 0.333 0 0.667 1; 0 0 1 1" fill="freeze" /><g transform="rotate(66)"><animateTransform repeatCount="indefinite" type="rotate" attributeName="transform" dur="4.017s" begin="0s" calcMode="spline" values="66; 66; 0; 0" keyTimes="0; 0.497925; 0.995851; 1" keySplines="0 0 1 1; 0.333 0 0.667 1; 0 0 1 1" fill="freeze" /><g transform="scale(2.05,2.05) translate(-589.209,-204.87)"><g id="i1" transform="matrix(1,0,0,1,568.465,178.445)"><path fill="#000000" d="M11.776,-6.649C9.416,-17.703,-2.678,-22.247,-11.763,-15.449C-16.562,-11.859,-18.889,-5.641,-17.56,0.214C-16.995,2.702,-15.78,5.034,-14,6.869C-13.077,7.822,-12.01,8.633,-10.848,9.274C-8.79,10.408,-6.166,11.081,-3.875,10.139C-1.762,9.271,-0.297,7.154,-0.572,4.835C-0.932,1.789,-4.066,0.594,-5.966,-1.338C-7.772,-3.174,-6.465,-5.841,-4.76,-7.271C-3.572,-8.267,-1.962,-8.33,-0.568,-7.745C1.026,-7.077,2.491,-5.723,3.362,-4.24C6.934,1.848,3.058,9.464,5.654,15.874C6.991,19.175,10.178,22.246,14,21.644C18.283,20.971,18.888,16.745,16.251,13.93C14.629,12.198,13.024,11.2,12.279,8.755C11.651,6.694,11.797,4.426,11.943,2.321C12.152,-0.713,12.42,-3.635,11.776,-6.649Z" /></g><g id="i2" transform="matrix(1,0,0,1,568.769,179.141)"><path fill="#0fccce" d="M11.599,11.039C12.291,12.108,13.211,12.82,14.119,13.692C17.033,15.665,16.951,20.314,10.714,19.002C9.863,18.635,9.158,18.094,8.598,17.378C2.056,10.537,11.458,-7.112,-0.971,-10.084C-5.387,-11.139,-10.494,-7.286,-8.737,-2.501C-8.251,-1.176,-7.13,-0.258,-5.988,0.541C-5.089,1.17,-3.969,1.548,-3.231,2.391C-2.449,3.285,-2.535,4.724,-2.94,5.791C-3.362,6.901,-4.348,8.069,-5.565,8.304C-7.074,8.595,-9.143,7.892,-10.444,7.162C-11.862,6.367,-13.115,5.289,-14.116,4.007C-16.091,1.478,-17.033,-1.78,-16.774,-4.974C-16.585,-7.314,-15.755,-9.574,-14.417,-11.501C-10.037,-17.812,-0.39,-20.315,5.65,-14.848C11.602,-9.461,9.776,-2.347,9.939,4.664C9.991,6.859,10.383,9.163,11.599,11.039Z" /></g><g id="i3" transform="matrix(1,0,0,1,589.56,205.078)"><path fill="#000000" d="M3.467,-2.135C2.72,-3.581,0.893,-4.387,-0.702,-4.371C-2.771,-4.351,-3.709,-2.989,-4.136,-1.122C-4.414,0.094,-4.169,1.32,-3.399,2.309C-2.072,4.016,0.338,4.386,2.143,3.195C3.883,2.046,4.414,-0.302,3.467,-2.135Z" /></g><g id="i4" transform="matrix(1,0,0,1,589.415,204.861)"><path fill="#0fccce" d="M1.377,2.132C0.227,2.87,-1.289,2.597,-2.079,1.481C-2.86,0.38,-2.649,-1.29,-1.536,-2.089C-0.445,-2.87,1.318,-2.569,2.075,-1.448C2.861,-0.285,2.564,1.37,1.377,2.132Z" /></g></g></g></g></g><g id="i6"><g transform="translate(562.859,511.712)"><g transform="rotate(0)"><animateTransform repeatCount="indefinite" type="rotate" attributeName="transform" dur="4.017s" begin="0s" calcMode="spline" values="0; 0; -5; 0; -5; 0; 0" keyTimes="0; 0.136929; 0.232365; 0.344398; 0.746888; 0.995851; 1" keySplines="0 0 1 1; 0.333 0 0.667 1; 0.333 0 0.667 1; 0.333 0 0.667 1; 0.333 0 0.667 1; 0 0 1 1" fill="freeze" /><g transform="scale(2.05,2.05) translate(-640.151,-236.201)"><g id="i7" transform="matrix(1,0,0,1,655.763,216.52)"><path fill="#000000" d="M25.677,9.7C25.668,6.152,24.908,2.567,24.042,-0.845C23.035,-4.812,21.535,-8.648,19.61,-12.258C19.587,-12.299,19.556,-12.319,19.53,-12.354C19.374,-12.562,20.424,-15.9,20.467,-16.443C20.57,-17.744,20.117,-19.102,20.789,-20.235C21.902,-22.112,21.288,-24.855,19.865,-26.418C19.04,-27.323,17.717,-27.652,16.71,-27.027C16.597,-27.269,16.474,-27.499,16.336,-27.697C15.606,-28.752,14.144,-29.191,13.082,-28.541C12.799,-29.967,12.217,-31.389,10.879,-32.076C9.522,-32.774,7.98,-32.275,7.335,-30.996C6.911,-31.472,6.379,-31.817,5.713,-31.923C3.65,-32.253,2.536,-30.305,3.056,-28.574C2.907,-27.464,2.862,-26.17,3.219,-25.099C0.701,-25.45,-1.816,-25.801,-4.335,-26.153C-4.457,-26.323,-4.651,-26.436,-4.938,-26.405C-6.26,-26.263,-7.58,-26.122,-8.9,-25.981C-9.685,-25.896,-9.957,-24.985,-9.297,-24.516C-8.334,-23.833,-7.371,-23.15,-6.407,-22.466C-6.156,-22.288,-5.91,-22.291,-5.711,-22.396C-3.832,-22.041,-1.953,-21.686,-0.075,-21.331C-0.081,-21.322,-0.09,-21.316,-0.095,-21.307C-1.245,-19.74,-0.379,-17.817,0.463,-16.334C1.692,-14.173,3.206,-12.198,4.888,-10.372C6.107,-4.605,6.751,3.469,1.153,5.99C0.921,5.984,0.688,6.072,0.517,6.242C-0.427,6.569,-1.522,6.759,-2.8,6.774C-8.668,6.843,-14.757,5.699,-20.609,5.052C-20.884,4.84,-21.28,4.804,-21.562,5C-21.985,5.107,-22.132,5.583,-21.994,5.984C-23.922,13.799,-25.683,23.616,-18.879,29.646C-16.081,32.125,-12.359,32.774,-8.733,32.727C-3.785,32.663,1.398,32.055,6.236,31C10.452,30.08,14.586,28.421,17.99,25.723C20.923,23.397,23.24,20.122,24.545,16.57C25.365,14.334,25.683,12.025,25.677,9.7Z" /></g><g id="i8" transform="matrix(1,0,0,1,649.352,192.044)"><path fill="#ffffff" d="M0.21,0.237C0.21,0.237,-0.352,-0.161,-0.352,-0.161C-0.117,-0.187,0.117,-0.212,0.352,-0.237C0.305,-0.079,0.257,0.079,0.21,0.237Z" /></g><g id="i9" transform="matrix(1,0,0,1,674.246,193.184)"><path fill="#ffffff" d="M-1.251,-2.098C-1.224,-2.122,-1.194,-2.131,-1.167,-2.161C0.035,-3.523,1.077,-0.444,1.219,0.298C1.38,1.141,1.345,2.104,0.708,2.757C-0.038,3.524,-1.366,3.25,-1.23,2.057C-1.204,1.832,-1.272,1.666,-1.38,1.542C-1.313,1.389,-1.252,1.233,-1.209,1.071C-0.977,0.19,-1.014,-0.992,-1.251,-2.098Z" /></g><g id="i10" transform="matrix(1,0,0,1,670.219,191.699)"><path fill="#ffffff" d="M-1.155,-1.945C-1.024,-1.976,-0.894,-2.037,-0.779,-2.174C0.639,-3.858,1.391,0.772,1.377,1.452C1.353,2.651,0.387,3.858,-0.738,2.77C-1.39,2.14,-1.244,0.808,-1.211,-0.009C-1.204,-0.167,-1.247,-0.292,-1.307,-0.401C-1.186,-0.903,-1.141,-1.43,-1.155,-1.945Z" /></g><g id="i11" transform="matrix(1,0,0,1,665.796,188.633)"><path fill="#ffffff" d="M-1.386,-2.165C-0.786,-4.413,1.062,-1.875,1.286,-1.243C1.452,-0.773,1.538,-0.263,1.612,0.227C1.714,0.894,1.837,1.829,1.581,2.487C0.833,4.412,-0.703,3.091,-1.268,1.895C-1.236,1.637,-1.224,1.379,-1.24,1.128C-1.29,0.3,-1.467,-0.735,-1.838,-1.664C-1.635,-1.737,-1.459,-1.892,-1.386,-2.165Z" /></g><g id="i12" transform="matrix(1,0,0,1,664.514,193.735)"><path fill="#ffffff" d="M-0.711,-1.314C-0.329,-0.791,0.144,-0.357,0.705,-0.125C0.62,0.07,0.609,0.299,0.74,0.54C1.114,1.228,0.081,1.314,-1.045,1.229C-1.068,0.533,-1.091,-0.163,-1.114,-0.859C-0.969,-0.997,-0.831,-1.147,-0.711,-1.314Z" /></g><g id="i1" transform="matrix(1,0,0,1,661.47,189.03)"><path fill="#ffffff" d="M-1.17,-1.519C-1.175,-1.531,-1.173,-1.541,-1.179,-1.553C-1.001,-1.989,-0.824,-2.425,-0.648,-2.861C-0.328,-2.776,-0.007,-2.69,0.312,-2.605C0.699,-2.325,0.891,-1.756,1.044,-1.326C1.295,-0.619,1.525,0.245,1.523,1.016C1.397,1.179,1.34,1.396,1.435,1.661C1.438,1.67,1.442,1.68,1.446,1.689C1.265,2.289,0.812,2.8,0.281,2.861C0.196,2.799,0.092,2.751,-0.044,2.732C-0.157,2.716,-0.27,2.701,-0.383,2.685C-0.476,2.625,-0.569,2.558,-0.661,2.463C-1.525,1.575,-1.254,0.063,-1.084,-1.027C-1.055,-1.217,-1.099,-1.377,-1.17,-1.519Z" /></g><g id="i2" transform="matrix(1,0,0,1,656.48,193.344)"><path fill="#ffffff" d="M-5.41,-0.621C-5.331,-0.887,-5.251,-1.154,-5.172,-1.42C-2.126,-0.995,0.92,-0.57,3.965,-0.144C4.15,-0.05,4.346,0.035,4.569,0.098C4.851,0.178,5.117,0.207,5.37,0.199C5.383,0.606,5.397,1.013,5.41,1.42C4.966,1.346,4.659,1.281,4.653,1.28C4.653,1.28,1.034,0.596,1.034,0.596C-1.114,0.191,-3.262,-0.215,-5.41,-0.621Z" /></g><g id="i3" transform="matrix(1,0,0,1,645.681,235.67)"><path fill="#0fccce" d="M5.731,11.719C1.847,12.073,-2.455,12.524,-6.014,10.55C-14.259,5.977,-12.309,-4.935,-10.451,-12.524C-5.604,-12.016,-0.758,-11.473,4.093,-11.016C6.168,-10.821,8.295,-10.67,10.277,-11.128C9.85,-3.577,11.207,3.726,14.259,10.665C11.441,11.177,8.576,11.46,5.731,11.719Z" /></g><g id="i4" transform="matrix(1,0,0,1,668.247,219.709)"><path fill="#ffffff" d="M11.435,9.566C9.88,17.802,4.088,23.186,-3.771,25.557C-4.751,25.852,-5.742,26.099,-6.74,26.316C-9.903,19.319,-11.198,11.936,-10.682,4.299C-10.179,4.075,-9.691,3.799,-9.22,3.454C-3.672,-0.619,-4.858,-8.23,-6.093,-14.038C-6.108,-14.105,-6.141,-14.15,-6.167,-14.205C-6.172,-14.224,-6.182,-14.242,-6.19,-14.26C-6.211,-14.298,-6.231,-14.339,-6.258,-14.37C-6.288,-14.418,-6.303,-14.47,-6.346,-14.516C-7.911,-16.199,-9.337,-18.014,-10.488,-20.008C-10.802,-20.554,-11.221,-21.165,-11.391,-21.77C-11.626,-22.607,-11.506,-23.87,-10.393,-24.036C-10.296,-24.05,-10.205,-24.054,-10.114,-24.051C-9.967,-24.02,-9.821,-23.991,-9.672,-23.957C-8.549,-23.542,-7.917,-21.791,-7.568,-20.848C-7.435,-20.487,-7.13,-20.328,-6.824,-20.318C-6.714,-20.292,-6.595,-20.287,-6.463,-20.315C-5.576,-20.51,-4.747,-20.269,-4.031,-19.728C-3.225,-19.118,-2.442,-20.482,-3.239,-21.085C-4.129,-21.758,-5.215,-22.022,-6.301,-21.918C-6.492,-22.403,-6.707,-22.887,-6.962,-23.339C-6.015,-23.141,-5.066,-22.985,-4.148,-22.966C-2.243,-22.926,-0.688,-24.147,-1.531,-26.004C-1.481,-26.016,-1.435,-26.019,-1.385,-26.035C-1.151,-26.105,-0.941,-26.202,-0.751,-26.315C-0.589,-25.019,-0.091,-23.789,1.26,-23.292C1.995,-23.021,2.705,-23.141,3.305,-23.485C3.649,-22.428,4.711,-21.651,5.887,-21.717C6.077,-21.728,6.256,-21.766,6.43,-21.816C6.612,-19.77,6.297,-17.731,5.493,-15.826C5.335,-15.454,5.467,-15.108,5.701,-14.882C5.716,-14.807,5.727,-14.731,5.769,-14.653C9.697,-7.289,11.625,0.689,11.523,8.98C11.491,9.176,11.472,9.37,11.435,9.566Z" /></g></g></g></g></g><g transform="matrix(2.05,0,0,2.05,-749.45,27.501)" id="i13"><g id="i3" transform="matrix(1,0,0,1,620.363,268.205)"><path fill="#000000" d="M30.59,19.387C29.275,15.214,27.196,11.123,25.565,7.051C21.285,-3.628,19.932,-15.442,21.542,-26.832C22.21,-31.557,23.325,-36.634,21.184,-40.898C19.646,-43.963,16.602,-46.066,13.348,-47.145C10.093,-48.223,6.612,-48.388,3.185,-48.412C-2.059,-48.449,-7.533,-48.159,-12.565,-46.394C-16.875,-44.882,-20.932,-42.173,-23.438,-38.291C-26.156,-34.081,-28.189,-29.635,-29.523,-24.77C-31.838,-16.327,-32.18,-7.436,-31.498,1.255C-30.903,8.842,-29.546,16.436,-26.609,23.456C-23.674,30.478,-19.081,36.925,-12.852,41.299C-5.539,46.435,3.895,48.449,12.667,46.744C17.169,45.869,21.534,44.023,25.02,41.042C28.504,38.062,31.055,33.898,31.698,29.358C32.18,25.962,31.618,22.65,30.59,19.387Z" /></g><g id="i4" transform="matrix(1,0,0,1,621.428,268.918)"><path fill="#0fccce" d="M28.438,31.328C22.679,48.193,-1.467,47.852,-13.488,38.973C-27.021,28.975,-30.798,11.305,-31.124,-4.576C-31.317,-14.05,-30.929,-24.101,-26.675,-32.764C-24.731,-36.722,-21.864,-40.266,-18.282,-42.854C-14.513,-45.577,-9.873,-46.479,-5.34,-46.96C-0.471,-47.478,4.665,-48.192,9.514,-47.201C12.118,-46.669,14.551,-45.517,16.46,-43.646C17.511,-42.614,18.343,-41.38,18.946,-40.038C20.875,-35.747,19.409,-30.982,18.802,-26.556C18.294,-22.848,18.11,-19.096,18.255,-15.357C18.554,-7.709,20.209,-0.152,23.124,6.924C26.234,14.477,31.316,22.902,28.438,31.328Z" /></g></g><g id="i14"><g transform="translate(683.68,622.108)"><g transform="rotate(0)"><animateTransform repeatCount="indefinite" type="rotate" attributeName="transform" dur="4.017s" begin="0s" calcMode="spline" values="0; 12; 0; 12; 0; 12; 0; 12; 0; 0" keyTimes="0; 0.124481; 0.248963; 0.373444; 0.497925; 0.622407; 0.746888; 0.871369; 0.995851; 1" keySplines="0.333 0 0.667 1; 0.333 0 0.667 1; 0.333 0 0.667 1; 0.333 0 0.667 1; 0.333 0 0.667 1; 0.333 0 0.667 1; 0.333 0 0.667 1; 0.333 0 0.667 1; 0 0 1 1" fill="freeze" /><g transform="scale(2.05,2.05) translate(-699.088,-290.053)"><g id="i3" transform="matrix(1,0,0,1,713.932,282.65)"><path fill="#000000" d="M-4.774,-13.967C-8.446,-12.68,-11.703,-10.346,-13.973,-7.173C-17.827,-1.784,-18.414,5.939,-17.465,12.322C-17.18,14.245,-16.604,16.619,-14.794,17.678C-11.788,19.438,-8.611,16.111,-6.549,14.387C-2.126,10.688,2.118,6.762,5.979,2.474C9.151,-1.047,13.514,-5.535,15.112,-10.068C18.414,-19.439,-0.791,-15.362,-4.774,-13.967Z" /></g><g id="i4" transform="matrix(1,0,0,1,713.821,283.774)"><path fill="#000000" d="M11.452,-7.907C7.465,-2.125,2.64,3.04,-2.531,7.775C-4.814,9.865,-7.148,11.96,-9.604,13.843C-11.069,14.967,-13.024,15.726,-14.331,13.996C-15.745,12.128,-15.982,9.675,-15.982,7.408C-15.982,5.085,-16.042,2.566,-15.76,0.266C-15.642,-0.705,-15.443,-1.666,-15.154,-2.6C-15.009,-3.075,-14.841,-3.545,-14.651,-4.004C-14.506,-4.352,-13.997,-5.027,-13.997,-5.384C-12.187,-8.773,-9.214,-11.428,-5.717,-12.99C-5.238,-13.204,-4.71,-13.344,-4.245,-13.576C-0.508,-14.888,3.547,-15.389,7.49,-15.452C8.862,-15.474,10.858,-15.725,12.096,-15.161C16.043,-13.36,12.779,-9.831,11.452,-7.907Z" /></g></g></g></g></g><g transform="matrix(2.05,0,0,2.05,-749.45,27.499)" id="i15"><g id="i8" transform="matrix(1,0,0,1,704.879,365.753)"><path fill="#000000" d="M6.562,-8.16C0.212,-10.675,-6.864,-11.163,-13.504,-9.585C-16.243,-8.933,-18.889,-7.764,-20.587,-5.425C-22.385,-2.948,-24.219,-0.27,-24.305,2.905C-24.324,3.612,-24.253,4.321,-24.095,5.012C-23.282,8.559,-20.314,10.29,-16.877,10.6C-10.613,11.163,-3.702,9.502,2.532,8.828C6.77,8.369,13.042,8.835,16.729,6.287C24.324,1.036,10.562,-6.576,6.562,-8.16Z" /></g><g id="i9" transform="matrix(1,0,0,1,704.015,366.099)"><path fill="#000000" d="M15.675,5.134C12.667,6.712,8.21,6.39,4.889,6.749C0.927,7.178,-3.036,7.606,-6.999,8.034C-10.383,8.401,-14.63,9.457,-17.969,8.322C-20.095,7.598,-21.785,6.084,-21.902,3.736C-22.01,1.57,-21.024,-0.581,-19.97,-2.415C-18.951,-4.183,-18.032,-6.269,-16.121,-7.249C-13.884,-8.395,-10.966,-8.816,-8.495,-9.096C-5.326,-9.456,-2.106,-9.333,1.027,-8.736C4.296,-8.114,7.479,-6.998,10.395,-5.389C12.903,-4.007,22.01,1.808,15.675,5.134Z" /></g><g id="i10" transform="matrix(1,0,0,1,674.555,315.059)"><path fill="#000000" d="M36.371,41.18C36.371,41.178,36.372,41.176,36.371,41.174C33.699,29.219,30.762,17.326,27.524,5.51C24.463,-5.663,21.634,-17.238,17.178,-27.952C13.889,-35.857,8.85,-43.532,0.956,-47.442C-6.028,-50.901,-14.465,-50.417,-20.494,-45.364C-20.819,-45.502,-21.221,-45.459,-21.456,-45.069C-28.607,-33.25,-33.633,-20.404,-36.392,-6.866C-36.46,-6.535,-36.326,-6.275,-36.121,-6.103C-36.213,-5.499,-35.389,-4.886,-34.776,-5.418C-29.476,-10.011,-21.567,-11.117,-15.286,-7.804C-9.125,-4.554,-6.298,2.256,-4.035,8.454C0.888,21.939,4.544,35.866,7.109,49.983C7.136,50.131,7.198,50.239,7.274,50.326C7.343,50.641,7.577,50.902,7.999,50.874C17.992,50.213,27.476,47.24,36.039,42.044C36.39,41.832,36.46,41.486,36.371,41.18Z" /></g><g id="i11" transform="matrix(1,0,0,1,674.591,314.216)"><path fill="#ffffff" d="M2.295,23.689C0.021,15.946,-2.223,7.678,-6.127,0.563C-11.902,-9.961,-24.9,-13.925,-34.684,-6.672C-31.94,-19.538,-27.136,-31.759,-20.364,-43.046C-20.137,-42.992,-19.887,-43.022,-19.664,-43.215C-11.728,-50.1,-0.47,-47.418,6.575,-40.666C13.451,-34.076,16.615,-24.842,19.359,-15.964C25.248,3.085,30.32,22.385,34.684,41.839C26.656,46.602,17.839,49.397,8.53,50.099C6.901,41.194,4.847,32.377,2.295,23.689Z" /></g><g id="i12" transform="matrix(1,0,0,1,667.036,288.145)"><path fill="#d7dfe0" d="M27.13,10.817C27.057,10.581,26.987,10.342,26.914,10.106C24.17,1.228,21.005,-8.004,14.13,-14.595C7.085,-21.347,-4.174,-24.03,-12.109,-17.145C-12.332,-16.952,-12.583,-16.92,-12.81,-16.975C-19.582,-5.688,-24.387,6.533,-27.13,19.398C-18.202,12.779,-6.6,15.505,-0.25,24.03C-0.551,18.824,1.58,13.514,6.125,10.431C12.76,5.93,20.689,7.023,27.13,10.817Z" /></g><g id="i1" transform="matrix(1,0,0,1,695.37,356.095)"><path fill="#000000" d="M12.935,-4.522C4.602,-0.229,-4.29,2.401,-13.619,3.314C-14.616,3.412,-14.626,4.984,-13.619,4.885C-4.012,3.945,5.148,1.254,13.728,-3.166C14.627,-3.628,13.833,-4.985,12.935,-4.522Z" /></g><g id="i2" transform="matrix(1,0,0,1,652.658,283.647)"><path fill="#000000" d="M57.104,-16.315C49.769,-32.494,30.697,-38.243,14.317,-34.444C-0.068,-31.109,-11.615,-22.198,-21.875,-11.967C-21.964,-11.97,-22.058,-11.964,-22.162,-11.928C-35.558,-7.231,-47.45,0.658,-56.953,11.207C-56.971,11.227,-56.975,11.248,-56.992,11.27C-56.997,11.278,-57,11.288,-57.006,11.296C-57.257,11.656,-57.16,12.071,-56.901,12.328C-50.442,31.102,-28.726,38.242,-11.909,28.002C-2.478,22.26,4.453,13.247,13.984,7.653C23.308,2.18,38.832,0.907,43.666,13.108C43.715,13.23,43.785,13.325,43.866,13.403C44.045,13.911,44.675,14.247,45.112,13.725C52.079,5.4,56.154,-4.619,56.975,-15.431C57.167,-15.657,57.257,-15.977,57.104,-16.315Z" /></g><g id="i3" transform="matrix(1,0,0,1,652.701,280.834)"><path fill="#ffffff" d="M44.693,14.512C41.533,7.89,34.323,4.561,27.082,4.688C17.367,4.858,9.126,11.315,2.165,17.435C-6.757,25.28,-15.913,34.239,-28.628,34.191C-40.933,34.145,-51.507,26.174,-55.454,14.664C-46.828,5.233,-36.283,-2.014,-24.401,-6.632C-27.934,-2.972,-31.325,0.805,-34.637,4.52C-35.309,5.273,-34.202,6.388,-33.527,5.631C-21.007,-8.405,-7.64,-23.271,10.885,-29.077C27.35,-34.238,47.543,-29.852,55.454,-13.22C55.428,-13.15,55.399,-13.084,55.393,-12.999C54.698,-2.88,51.002,6.608,44.693,14.512Z" /></g><g id="i4" transform="matrix(1,0,0,1,652.8,287.046)"><path fill="#000000" d="M51.208,-25.167C50.335,-17.212,48.044,-9.617,44.446,-2.575C37.322,-6.635,28.901,-8.008,20.895,-5.977C12.088,-3.741,5.134,2.474,-1.48,8.364C-9.377,15.397,-18.491,23.271,-29.813,22.615C-40.738,21.982,-46.447,12.29,-51.058,3.643C-51.534,2.75,-52.891,3.543,-52.415,4.436C-48.646,11.505,-44.306,19.324,-36.577,22.646C-28.37,26.172,-19.054,23.328,-11.901,18.729C-3.307,13.203,3.252,5.063,11.943,-0.33C21.802,-6.447,33.611,-6.954,43.714,-1.179C42.768,0.569,41.74,2.281,40.632,3.954C40.072,4.8,41.433,5.588,41.989,4.747C47.97,-4.279,51.598,-14.406,52.779,-25.167C52.89,-26.171,51.317,-26.163,51.208,-25.167Z" /></g></g><g id="i16"><g transform="translate(528.73,499.328)"><g transform="rotate(0)"><animateTransform repeatCount="indefinite" type="rotate" attributeName="transform" dur="4.017s" begin="0s" calcMode="spline" values="0; 0; 5; -7; 0; 0" keyTimes="0; 0.20332; 0.352697; 0.59751; 0.746888; 1" keySplines="0 0 1 1; 0.167 0.167 0.667 1; 0.333 0 0.667 1; 0.333 0 0.833 0.833; 0 0 1 1" fill="freeze" /><g transform="scale(2.05,2.05) translate(-623.502,-230.16)"><g id="i17" transform="matrix(1,0,0,1,605.994,213.61)"><path fill="#000000" d="M4.863,-0.662C4.424,-3.308,2.48,-5.751,-0.456,-5.331C-3.409,-4.909,-5.283,-2.019,-4.69,0.857C-4.118,3.633,-1.341,5.751,1.523,5.171C4.321,4.605,5.284,1.878,4.863,-0.662Z" /></g><g id="i18" transform="matrix(1,0,0,1,606.587,213.609)"><path fill="#ffffff" d="M0.02,3.438C-1.748,3.456,-3.222,2.074,-3.531,0.374C-3.897,-1.652,-2.357,-3.456,-0.289,-3.418C3.317,-3.352,3.897,3.399,0.02,3.438Z" /></g><g id="i19" transform="matrix(1,0,0,1,641.342,208.287)"><path fill="#000000" d="M4.863,-0.662C4.424,-3.308,2.481,-5.75,-0.456,-5.33C-3.408,-4.908,-5.283,-2.019,-4.69,0.857C-4.118,3.633,-1.342,5.75,1.523,5.171C4.321,4.605,5.284,1.878,4.863,-0.662Z" /></g><g id="i20" transform="matrix(1,0,0,1,641.934,208.287)"><path fill="#ffffff" d="M0.021,3.438C-1.748,3.456,-3.222,2.074,-3.53,0.374C-3.897,-1.652,-2.356,-3.456,-0.288,-3.418C3.318,-3.352,3.897,3.399,0.021,3.438Z" /></g><g id="i21" transform="matrix(1,0,0,1,620.602,226.581)"><path fill="#000000" d="M6.369,-6.258C2.725,-10.371,-2.967,-10.76,-7.791,-8.698C-8.222,-8.514,-8.271,-8.124,-8.116,-7.798C-8.149,-7.74,-8.188,-7.689,-8.208,-7.615C-9.617,-2.459,-9.94,3.906,-5.386,7.669C-1.645,10.76,4.052,10.09,7.008,6.277C9.94,2.492,9.485,-2.741,6.369,-6.258Z" /></g><g id="i7" transform="matrix(1,0,0,1,620.686,226.665)"><path fill="#d7dfe0" d="M5.651,5.209C2.57,9.057,-3.326,8.792,-6.052,4.59C-8.379,1.004,-7.847,-3.371,-6.778,-7.282C-6.751,-7.379,-6.754,-7.467,-6.76,-7.553C-2.971,-9.058,1.45,-8.808,4.529,-5.899C7.596,-3.002,8.379,1.802,5.651,5.209Z" /></g><g id="i8" transform="matrix(1,0,0,1,623.796,205.066)"><path fill="#000000" d="M15.646,-13.668C12.13,-21.464,3.015,-25.04,-4.973,-22.098C-9.772,-20.33,-13.545,-16.637,-15.627,-11.99C-17.058,-8.794,-17.529,-5.258,-17.65,-1.787C-17.766,1.522,-17.834,5.066,-17.138,8.319C-15.911,14.056,-12.239,19.042,-6.859,21.507C0.856,25.04,10.41,22.213,14.451,14.612C16.53,10.701,17.055,6.147,17.406,1.798C17.825,-3.406,17.834,-8.818,15.646,-13.668Z" /></g><g id="i9" transform="matrix(1,0,0,1,623.496,204.782)"><path fill="#ffffff" d="M16.32,-0.852C15.942,8.877,13.532,20.701,1.756,21.743C-3.545,22.212,-8.481,19.878,-11.65,15.636C-15.998,9.814,-16.715,0.646,-15.341,-6.308C-14.851,-8.788,-13.952,-11.198,-12.627,-13.354C-9.888,-17.811,-5.361,-20.826,-0.104,-21.249C11.878,-22.212,16.716,-11.078,16.32,-0.852Z" /></g><g id="i10" transform="matrix(1,0,0,1,623.756,196.407)"><path fill="#d7dfe0" d="M-0.364,-12.875C-5.621,-12.452,-10.147,-9.436,-12.886,-4.978C-14.211,-2.822,-15.111,-0.412,-15.601,2.068C-16.31,5.657,-16.456,9.833,-15.839,13.837C-12.116,11.512,-9.1,8.48,-6.765,4.742C-5.102,7.452,-2.706,10.339,0.787,9.772C2.885,9.431,4.18,7.836,4.279,6.018C7.713,8.492,11.605,10.726,15.909,10.095C15.977,9.228,16.027,8.367,16.06,7.523C16.456,-2.703,11.617,-13.838,-0.364,-12.875Z" /></g><g id="i11" transform="matrix(1,0,0,1,625.049,192.197)"><path fill="#000000" d="M20.061,-5.646C16.951,-11.165,9.264,-12.554,3.304,-13.398C4.129,-14.059,4.726,-14.933,4.495,-16.092C4.105,-18.045,2.292,-18.008,0.708,-17.632C-5.286,-16.209,-10.403,-12.183,-13.82,-7.156C-17.503,-6.656,-20.311,-1.864,-21.431,1.129C-23.419,6.446,-22.457,12.084,-19.371,16.751C-19.194,17.017,-18.937,17.122,-18.685,17.113C-18.54,17.656,-17.867,18.046,-17.396,17.507C-13.53,13.08,-10.8,7.861,-9.732,2.051C-9.712,1.945,-9.692,1.828,-9.672,1.717C-8.36,5.271,-5.994,8.25,-2.652,10.462C-2.15,10.795,-1.443,10.358,-1.457,9.777C-1.504,7.692,-1.846,5.743,-2.482,3.85C2.51,7.517,8.134,9.976,14.296,11.13C14.577,11.39,14.997,11.458,15.307,11.073C18.965,6.55,23.42,0.314,20.061,-5.646Z" /></g><g id="i12" transform="matrix(1,0,0,1,609.264,195.453)"><path fill="#000000" d="M3.138,3.431C1.893,6.812,0.027,9.839,-2.28,12.584C-4.278,9.521,-5.389,6.055,-5.076,2.372C-4.891,0.199,-4.195,-1.905,-3.123,-3.796C-2.406,-5.058,2.678,-12.584,4.952,-6.266C5.006,-6.119,5.047,-5.963,5.081,-5.799C5.106,-5.606,5.136,-5.416,5.165,-5.225C5.389,-2.599,3.88,1.417,3.138,3.431Z" /></g><g id="i1" transform="matrix(1,0,0,1,630.455,188.87)"><path fill="#000000" d="M9.095,12.877C2.244,11.557,-3.914,8.646,-9.242,4.102C-9.924,3.521,-10.915,4.239,-10.49,5.066C-9.418,7.153,-8.8,9.215,-8.563,11.459C-11.923,8.766,-14.011,5.04,-14.537,0.662C-14.553,0.524,-14.601,0.408,-14.665,0.308C-14.797,-1.564,-15.468,-3.207,-17.365,-3.722C-15.533,-6.244,-13.311,-8.39,-10.636,-10.044C-9.242,-10.906,-7.769,-11.613,-6.229,-12.174C-5.798,-12.331,-4.724,-12.877,-4.274,-12.771C-3.303,-12.542,-3.478,-10.964,-4.565,-10.443C-5.055,-10.207,-5.05,-9.716,-4.805,-9.367C-4.789,-9.082,-4.614,-8.831,-4.232,-8.777C0.716,-8.091,6.051,-7.411,10.281,-4.527C17.365,0.302,13.169,7.734,9.095,12.877Z" /></g><g id="i2" transform="matrix(1,0,0,1,620.551,214.238)"><path fill="#000000" d="M1.259,-0.897C0.424,-0.364,-0.516,-0.156,-1.493,-0.359C-2.479,-0.565,-2.901,0.949,-1.91,1.156C-0.529,1.443,0.857,1.224,2.052,0.46C2.902,-0.083,2.114,-1.443,1.259,-0.897Z" /></g><g id="i3" transform="matrix(1,0,0,1,633.98,211.537)"><path fill="#000000" d="M0.827,-0.838C0.222,-0.289,-0.571,-0.191,-1.325,-0.463C-2.278,-0.806,-2.689,0.711,-1.743,1.052C-0.458,1.516,0.939,1.18,1.938,0.273C2.689,-0.407,1.575,-1.516,0.827,-0.838Z" /></g><g id="i4" transform="matrix(1,0,0,1,628.624,213.936)"><path fill="#000000" d="M0.242,-3.066C-0.271,-3.937,-1.63,-3.146,-1.114,-2.272C-0.241,-0.789,0.017,0.859,-0.383,2.534C-0.618,3.517,0.896,3.936,1.133,2.952C1.63,0.872,1.329,-1.222,0.242,-3.066Z" /></g></g></g></g></g><g transform="matrix(2.05,0,0,2.05,-749.45,27.5)" id="i22"><g id="i1" transform="matrix(1,0,0,1,602.381,248.874)"><path fill="#000000" d="M13.732,15.449C13.341,3.887,11.437,-7.583,8.836,-18.838C8.386,-20.784,7.99,-22.75,7.494,-24.685C7.366,-25.185,7.224,-25.689,6.957,-26.131C6.189,-27.399,4.304,-27.669,3.044,-28.205C1.383,-28.91,-0.358,-29.476,-2.15,-29.717C-5.686,-30.192,-9.038,-29.086,-11.049,-26.021C-11.399,-25.489,-11.698,-24.925,-11.957,-24.345C-13.89,-20.019,-13.956,-14.661,-13.96,-10.022C-13.965,-4.42,-13.303,1.194,-11.996,6.641C-10.103,14.531,-6.725,26.644,2.589,28.512C10.968,30.192,13.965,22.369,13.732,15.449Z" /></g><g id="i2" transform="matrix(1,0,0,1,602.592,248.537)"><path fill="#0fccce" d="M10.868,23.313C7.428,30.69,-1.263,26.978,-4.749,21.839C-10.534,13.312,-12.496,1.117,-12.601,-8.962C-12.652,-13.856,-12.786,-19.95,-10.265,-24.327C-6.602,-30.69,0.555,-27.646,5.494,-24.786C5.499,-24.755,5.49,-24.73,5.499,-24.698C8.383,-13.427,10.429,-1.969,11.496,9.62C11.897,13.975,12.786,19.2,10.868,23.313Z" /></g><g id="i3" transform="matrix(1,0,0,1,609.699,245.783)"><path fill="#000000" d="M10.854,-24.19C10.972,-25.026,10.536,-25.934,9.55,-26.31C9.347,-26.387,9.143,-26.429,8.939,-26.453C9.154,-27.46,8.646,-28.416,7.136,-28.651C6.437,-28.761,5.728,-28.726,5.028,-28.6C5.386,-29.398,5.39,-30.26,4.579,-31.015C2.87,-32.604,0.471,-30.752,-0.707,-29.468C-4.039,-25.841,-4.254,-20.825,-1.996,-16.886C-5.165,-4.958,-14.281,5.179,-14.025,17.909C-14.106,18.027,-14.162,18.169,-14.147,18.359C-13.764,23.195,-11.7,28.052,-7.183,30.372C-2.838,32.604,2.335,31.721,5.469,27.942C9.2,23.445,9.405,16.838,9.905,11.287C10.643,3.097,10.701,-5.123,10.191,-13.329C11.386,-13.943,11.738,-15.302,11.822,-16.679C11.889,-17.796,11.817,-18.421,12.589,-19.389C12.859,-19.727,13.209,-19.991,13.466,-20.342C13.907,-20.944,14.28,-21.659,14.178,-22.43C13.957,-24.116,12.272,-24.511,10.854,-24.19Z" /></g><g id="i4" transform="matrix(1,0,0,1,609.447,245.596)"><path fill="#ffffff" d="M12.399,-21.052C12.198,-20.787,11.975,-20.54,11.731,-20.312C11.27,-19.765,10.863,-19.242,10.673,-18.534C10.356,-17.347,11.007,-14.781,9.35,-14.406C8.807,-14.283,8.701,-13.773,8.87,-13.372C8.87,-13.354,8.862,-13.341,8.863,-13.322C9.518,-2.947,9.367,7.585,7.862,17.886C7.102,23.083,5.131,29.65,-1.108,30.142C-7.413,30.639,-11.292,25.384,-12.175,19.77C-12.149,19.685,-12.13,19.593,-12.138,19.485C-13.078,6.756,-4.119,-3.367,-0.583,-15.033C-0.18,-14.551,0.256,-14.089,0.746,-13.666C1.507,-13.008,2.624,-14.114,1.857,-14.777C-0.55,-16.86,-1.945,-19.585,-1.657,-22.836C-1.532,-24.246,-1.138,-25.511,-0.398,-26.741C-0.029,-27.406,0.434,-28.004,0.991,-28.536C4.014,-30.639,4.423,-28.548,2.566,-27.403C1.862,-27.004,1.207,-26.531,0.645,-26.009C-0.096,-25.318,1.017,-24.209,1.756,-24.898C2.717,-25.792,3.817,-26.429,5.099,-26.739C5.588,-26.857,6.378,-27.073,6.893,-26.937C7.485,-27.038,7.698,-26.78,7.532,-26.16C7.41,-26.029,7.27,-25.916,7.133,-25.801C7.071,-25.768,7.007,-25.738,6.946,-25.704C5.596,-24.954,4.336,-23.978,3.052,-23.12C2.216,-22.56,3.003,-21.199,3.846,-21.763C4.784,-22.391,5.721,-23.02,6.66,-23.646C7.013,-23.882,7.368,-24.139,7.739,-24.347C8.056,-24.554,8.402,-24.68,8.777,-24.725C9.254,-24.803,10.546,-24.662,8.976,-23.109C7.646,-22.328,6.455,-21.229,5.505,-20.116C4.852,-19.351,5.959,-18.235,6.616,-19.005C7.47,-20.007,8.414,-20.887,9.545,-21.574C9.97,-21.832,10.769,-22.424,11.286,-22.435C12.707,-22.104,13.079,-21.642,12.399,-21.052Z" /></g></g><g visibility="visible" id="i23"><animate repeatCount="indefinite" begin="0s" calcMode="discrete" dur="4.017s" values="visible; hidden; hidden" keyTimes="0; 0.502042; 1" attributeName="visibility" /><g transform="translate(458.428,447.484)"><animateTransform repeatCount="indefinite" type="translate" attributeName="transform" dur="4.017s" begin="0s" calcMode="spline" values="458.428 447.484; 652.428 445.484; 652.428 445.484" keyTimes="0; 0.497925; 1" keySplines="0.333 0 0.667 1; 0 0 1 1" fill="freeze" /><g transform="rotate(0)"><animateTransform repeatCount="indefinite" type="rotate" attributeName="transform" dur="4.017s" begin="0s" calcMode="spline" values="0; 66; 66" keyTimes="0; 0.497925; 1" keySplines="0.333 0 0.667 1; 0 0 1 1" fill="freeze" /><g transform="scale(2.05,2.05) translate(-589.209,-204.87)"><g id="i1" transform="matrix(1,0,0,1,568.465,178.445)"><path fill="#000000" d="M11.776,-6.649C9.416,-17.703,-2.678,-22.247,-11.763,-15.449C-16.562,-11.859,-18.889,-5.641,-17.56,0.214C-16.995,2.702,-15.78,5.034,-14,6.869C-13.077,7.822,-12.01,8.633,-10.848,9.274C-8.79,10.408,-6.166,11.081,-3.875,10.139C-1.762,9.271,-0.297,7.154,-0.572,4.835C-0.932,1.789,-4.066,0.594,-5.966,-1.338C-7.772,-3.174,-6.465,-5.841,-4.76,-7.271C-3.572,-8.267,-1.962,-8.33,-0.568,-7.745C1.026,-7.077,2.491,-5.723,3.362,-4.24C6.934,1.848,3.058,9.464,5.654,15.874C6.991,19.175,10.178,22.246,14,21.644C18.283,20.971,18.888,16.745,16.251,13.93C14.629,12.198,13.024,11.2,12.279,8.755C11.651,6.694,11.797,4.426,11.943,2.321C12.152,-0.713,12.42,-3.635,11.776,-6.649Z" /></g><g id="i2" transform="matrix(1,0,0,1,568.769,179.141)"><path fill="#0fccce" d="M11.599,11.039C12.291,12.108,13.211,12.82,14.119,13.692C17.033,15.665,16.951,20.314,10.714,19.002C9.863,18.635,9.158,18.094,8.598,17.378C2.056,10.537,11.458,-7.112,-0.971,-10.084C-5.387,-11.139,-10.494,-7.286,-8.737,-2.501C-8.251,-1.176,-7.13,-0.258,-5.988,0.541C-5.089,1.17,-3.969,1.548,-3.231,2.391C-2.449,3.285,-2.535,4.724,-2.94,5.791C-3.362,6.901,-4.348,8.069,-5.565,8.304C-7.074,8.595,-9.143,7.892,-10.444,7.162C-11.862,6.367,-13.115,5.289,-14.116,4.007C-16.091,1.478,-17.033,-1.78,-16.774,-4.974C-16.585,-7.314,-15.755,-9.574,-14.417,-11.501C-10.037,-17.812,-0.39,-20.315,5.65,-14.848C11.602,-9.461,9.776,-2.347,9.939,4.664C9.991,6.859,10.383,9.163,11.599,11.039Z" /></g><g id="i3" transform="matrix(1,0,0,1,589.56,205.078)"><path fill="#000000" d="M3.467,-2.135C2.72,-3.581,0.893,-4.387,-0.702,-4.371C-2.771,-4.351,-3.709,-2.989,-4.136,-1.122C-4.414,0.094,-4.169,1.32,-3.399,2.309C-2.072,4.016,0.338,4.386,2.143,3.195C3.883,2.046,4.414,-0.302,3.467,-2.135Z" /></g><g id="i4" transform="matrix(1,0,0,1,589.415,204.861)"><path fill="#0fccce" d="M1.377,2.132C0.227,2.87,-1.289,2.597,-2.079,1.481C-2.86,0.38,-2.649,-1.29,-1.536,-2.089C-0.445,-2.87,1.318,-2.569,2.075,-1.448C2.861,-0.285,2.564,1.37,1.377,2.132Z" /></g></g></g></g></g><g transform="matrix(2.05,0,0,2.05,-749.45,27.5)" id="i24"><g id="i7" transform="matrix(1,0,0,1,570.425,328.134)"><path fill="#ffffff" d="M-4.396,47.728C-4.396,47.728,-4.422,-47.725,-4.422,-47.725C-4.423,-50.15,-2.44,-52.134,-0.015,-52.135C2.41,-52.136,4.394,-50.153,4.395,-47.728C4.395,-47.728,4.421,47.725,4.421,47.725C4.422,50.15,2.439,52.134,0.014,52.135C-2.411,52.136,-4.396,50.153,-4.396,47.728Z" /></g><g id="i8" transform="matrix(1,0,0,1,570.413,286.838)"><path fill="#d7dfe0" d="M4.407,-6.431C4.407,-7.221,4.193,-7.962,3.825,-8.606C1.306,-8.709,-1.235,-8.707,-3.735,-8.759C-4.16,-8.081,-4.411,-7.284,-4.41,-6.428C-4.41,-6.428,-4.406,8.759,-4.406,8.759C-1.451,8.444,1.488,8.02,4.411,7.503C4.411,7.503,4.407,-6.431,4.407,-6.431Z" /></g><g id="i9" transform="matrix(1,0,0,1,570.425,329.762)"><path stroke-miterlimit="10" stroke-width="1" stroke="#000000" d="M-4.396,47.728C-4.396,47.728,-4.422,-47.725,-4.422,-47.725C-4.423,-50.15,-2.44,-52.135,-0.015,-52.135C2.41,-52.136,4.394,-50.153,4.395,-47.728C4.395,-47.728,4.421,47.725,4.421,47.725C4.422,50.15,2.439,52.134,0.014,52.135C-2.411,52.136,-4.396,50.153,-4.396,47.728Z" /></g><g id="i10" transform="matrix(1,0,0,1,570.424,280.408)"><path stroke-miterlimit="10" stroke-width="1" stroke="#000000" fill="#000000" d="M54.607,4.409C54.607,4.409,-54.607,4.409,-54.607,4.409C-57.032,4.409,-59.016,2.426,-59.016,0.001C-59.016,-2.425,-57.032,-4.408,-54.607,-4.408C-54.607,-4.408,54.607,-4.408,54.607,-4.408C57.033,-4.408,59.016,-2.425,59.016,0.001C59.016,2.426,57.033,4.409,54.607,4.409Z" /></g><g id="i11" transform="matrix(1,0,0,1,570.425,380.18)"><path stroke-miterlimit="10" stroke-width="1" stroke="#000000" fill="#000000" d="M0,-3.498C-24.056,-3.498,-43.557,-0.366,-43.557,3.498C-43.557,3.498,43.557,3.498,43.557,3.498C43.557,-0.366,24.056,-3.498,0,-3.498Z" /></g><g id="i12" transform="matrix(1,0,0,1,554.184,272.181)"><path fill="#000000" d="M39.984,1.94C39.984,1.94,39.17,-2.161,39.17,-2.161C39.13,-2.355,39.017,-2.497,38.915,-2.591C38.716,-2.767,38.533,-2.84,38.334,-2.915C37.988,-3.038,37.577,-3.125,37.07,-3.207C35.561,-3.448,33.219,-3.596,30.603,-3.597C30.603,-3.597,-31.767,-3.597,-31.767,-3.597C-33.863,-3.596,-35.748,-3.5,-37.144,-3.339C-37.845,-3.257,-38.418,-3.163,-38.87,-3.039C-39.099,-2.976,-39.296,-2.911,-39.497,-2.798C-39.597,-2.741,-39.703,-2.67,-39.804,-2.556C-39.904,-2.445,-39.998,-2.268,-39.997,-2.07C-39.997,-2.07,-39.985,-1.938,-39.985,-1.938C-39.985,-1.938,-39.17,2.161,-39.17,2.161C-39.131,2.355,-39.019,2.499,-38.916,2.593C-38.717,2.768,-38.534,2.841,-38.335,2.917C-37.99,3.039,-37.579,3.126,-37.071,3.208C-35.562,3.448,-33.22,3.597,-30.604,3.598C-30.604,3.598,31.766,3.598,31.766,3.598C33.861,3.598,35.748,3.502,37.143,3.34C37.844,3.258,38.418,3.165,38.87,3.041C39.098,2.977,39.296,2.912,39.497,2.799C39.596,2.742,39.702,2.671,39.803,2.557C39.903,2.446,39.998,2.269,39.997,2.07C39.997,2.07,39.984,1.94,39.984,1.94Z" /></g><g id="i1" transform="matrix(1,0,0,1,554.184,272.181)"><path fill="#d7dfe0" d="M31.766,2.261C31.766,2.261,-30.604,2.261,-30.604,2.261C-32.669,2.262,-34.568,2.162,-35.931,2.009C-36.611,1.933,-37.161,1.84,-37.499,1.752C-37.568,1.735,-37.62,1.718,-37.669,1.701C-37.669,1.701,-38.359,-1.777,-38.359,-1.777C-38.23,-1.811,-38.063,-1.849,-37.869,-1.883C-36.649,-2.103,-34.364,-2.263,-31.767,-2.262C-31.767,-2.262,30.603,-2.262,30.603,-2.262C32.667,-2.262,34.567,-2.164,35.93,-2.01C36.61,-1.933,37.16,-1.841,37.497,-1.753C37.566,-1.736,37.619,-1.718,37.666,-1.703C37.666,-1.703,38.358,1.776,38.358,1.776C38.229,1.81,38.062,1.848,37.868,1.882C36.648,2.103,34.363,2.263,31.766,2.261Z" /></g><g id="i2" transform="matrix(1,0,0,1,538.189,249.072)"><path fill="#000000" d="M38.125,15.782C38.125,15.782,29.459,-16.193,29.459,-16.193C28.895,-18.262,27.609,-20.1,25.982,-21.44C24.354,-22.777,22.37,-23.631,20.357,-23.635C20.357,-23.635,-32.741,-23.635,-32.741,-23.635C-34.403,-23.638,-35.855,-23.027,-36.858,-21.978C-37.865,-20.931,-38.415,-19.475,-38.413,-17.866C-38.413,-17.195,-38.319,-16.495,-38.125,-15.781C-38.125,-15.781,-29.46,16.193,-29.46,16.193C-28.897,18.262,-27.61,20.1,-25.982,21.44C-24.355,22.777,-22.37,23.632,-20.357,23.635C-20.357,23.635,32.74,23.635,32.74,23.635C34.402,23.638,35.854,23.027,36.857,21.977C37.864,20.931,38.414,19.475,38.412,17.867C38.412,17.195,38.318,16.496,38.125,15.782Z" /></g><g id="i3" transform="matrix(1,0,0,1,538.189,249.072)"><path fill="#ffffff" d="M35.724,20.889C35.023,21.614,34.03,22.059,32.741,22.063C32.741,22.063,-20.357,22.063,-20.357,22.063C-21.911,22.067,-23.589,21.377,-24.985,20.226C-26.382,19.079,-27.484,17.486,-27.943,15.782C-27.943,15.782,-36.608,-16.193,-36.608,-16.193C-36.768,-16.781,-36.841,-17.343,-36.841,-17.867C-36.839,-19.126,-36.422,-20.161,-35.724,-20.889C-35.023,-21.614,-34.031,-22.06,-32.742,-22.064C-32.742,-22.064,20.357,-22.064,20.357,-22.064C21.911,-22.067,23.587,-21.378,24.984,-20.227C26.381,-19.08,27.483,-17.486,27.943,-15.782C27.943,-15.782,36.608,16.193,36.608,16.193C36.767,16.781,36.841,17.342,36.841,17.867C36.839,19.125,36.422,20.16,35.724,20.889Z" /></g><g id="i4" transform="matrix(1,0,0,1,536.78,250.276)"><path fill="#d7dfe0" d="M33.828,19.748C33.164,20.434,32.224,20.855,31.003,20.858C31.003,20.858,-19.276,20.858,-19.276,20.858C-20.747,20.862,-22.336,20.21,-23.658,19.122C-24.982,18.037,-26.025,16.531,-26.46,14.92C-26.46,14.92,-34.664,-15.309,-34.664,-15.309C-34.816,-15.865,-34.885,-16.396,-34.885,-16.892C-34.883,-18.082,-34.488,-19.061,-33.827,-19.749C-33.163,-20.434,-32.224,-20.856,-31.003,-20.859C-31.003,-20.859,19.276,-20.859,19.276,-20.859C20.748,-20.862,22.335,-20.21,23.657,-19.123C24.98,-18.038,26.023,-16.532,26.459,-14.92C26.459,-14.92,34.664,15.309,34.664,15.309C34.814,15.864,34.885,16.395,34.885,16.891C34.883,18.081,34.489,19.061,33.828,19.748Z" /></g></g></svg>